%
M48
M72
T01C0.0315
T02C0.0394
T03C0.0520
T04C0.0551
T05C0.0709
T06C0.0866
T07C0.1181
%
T01
X8639Y13405
X9639Y13405
T02
X13131Y12951
X13131Y13951
T03
X3683Y7579
X3683Y9559
X3683Y11519
X3683Y13499
X3683Y15459
X3683Y17439
X3683Y19399
X3683Y21379
X16281Y21379
X16281Y19399
X16281Y17439
X16281Y15459
X16281Y13499
X16281Y11519
X16281Y9559
X16281Y7579
T04
X11482Y15463
X8482Y15463
T05
X6482Y15463
X13482Y15463
T06
X10639Y11405
X6639Y11405
T07
X1320Y7786
X1320Y7786
X1320Y21172
X19037Y21172
X19037Y7786
M30
